<?xml version="1.0" encoding="utf-8"?>
<!-- Generator: Adobe Illustrator 15.1.0, SVG Export Plug-In . SVG Version: 6.00 Build 0)  -->
<!DOCTYPE svg PUBLIC "-//W3C//DTD SVG 1.1//EN" "http://www.w3.org/Graphics/SVG/1.1/DTD/svg11.dtd">
<svg version="1.1" id="Layer_1" xmlns="http://www.w3.org/2000/svg" xmlns:xlink="http://www.w3.org/1999/xlink" x="0px" y="0px"
	 width="340.937px" height="578.941px" viewBox="0 0 340.937 578.941" enable-background="new 0 0 340.937 578.941"
	 xml:space="preserve">
<g>
	<g>
		<path fill="#FFFFFF" d="M170.469,557.44c-2.141,0-4.17-0.508-5.714-1.43L7.176,461.917c-3.183-1.901-5.676-6.294-5.676-10.001
			V127.024c0-3.707,2.493-8.1,5.676-10.001L164.754,22.93c1.544-0.922,3.574-1.43,5.714-1.43c2.14,0,4.169,0.508,5.714,1.43
			l157.577,94.094c3.184,1.901,5.677,6.294,5.677,10.001v324.892c0,3.707-2.493,8.1-5.676,10.001l-157.578,94.094
			C174.638,556.933,172.609,557.44,170.469,557.44z M170.469,24.5c-1.583,0-3.106,0.367-4.176,1.006L8.714,119.599
			c-2.285,1.364-4.214,4.765-4.214,7.425v324.892c0,2.66,1.93,6.061,4.214,7.425l157.578,94.094c1.07,0.64,2.593,1.006,4.176,1.006
			s3.106-0.366,4.177-1.006l157.577-94.094c2.284-1.364,4.214-4.765,4.214-7.425V127.024c0-2.661-1.93-6.061-4.215-7.425
			L174.646,25.506C173.575,24.866,172.052,24.5,170.469,24.5z"/>
	</g>
	<g>
		<path fill="#FFFFFF" d="M170.469,578.94c-2.407,0-4.71-0.583-6.483-1.642L6.407,483.205C2.754,481.023,0,476.171,0,471.916
			V107.024c0-4.254,2.754-9.107,6.407-11.289L163.985,1.642C165.759,0.583,168.062,0,170.469,0c2.407,0,4.709,0.583,6.484,1.642
			L334.53,95.736c3.652,2.181,6.407,7.034,6.407,11.289v364.892c0,4.255-2.755,9.107-6.407,11.289l-157.577,94.094
			C175.178,578.357,172.875,578.94,170.469,578.94z M170.469,6c-1.321,0-2.562,0.29-3.407,0.794L9.483,100.887
			C7.66,101.976,6,104.901,6,107.024v364.892c0,2.123,1.66,5.049,3.483,6.137l157.578,94.094c0.845,0.505,2.086,0.794,3.407,0.794
			s2.563-0.289,3.409-0.794l157.576-94.094c1.823-1.088,3.483-4.014,3.483-6.137V107.024c0-2.124-1.66-5.048-3.483-6.137
			L173.876,6.793C173.032,6.289,171.79,6,170.469,6z"/>
	</g>
</g>
<g>
	<g>
		<g>
			<path fill="#FFFFFF" d="M164.937,242.566c0.38,0,0.532,0.152,0.608,0.532l0.684,5.548c0.076,0.304-0.152,0.532-0.456,0.532
				h-6.004v43.474l0.608,1.824c0.152,0.38,0,0.607-0.38,0.607h-6.992c-0.38,0-0.532-0.228-0.38-0.607l0.608-1.824v-43.474h-6.081
				c-0.304,0-0.532-0.228-0.456-0.532l0.684-5.548c0.076-0.38,0.228-0.532,0.608-0.532H164.937z"/>
		</g>
		<g>
			<path fill="#FFFFFF" d="M185.608,242.566c0.305,0,0.456,0.076,0.685,0.304l2.66,2.66c0.228,0.228,0.304,0.38,0.304,0.684v45.222
				c0,0.305-0.076,0.457-0.304,0.685l-2.66,2.66c-0.229,0.228-0.38,0.304-0.685,0.304h-12.389c-0.304,0-0.456-0.076-0.684-0.304
				l-2.661-2.66c-0.228-0.228-0.304-0.38-0.304-0.685v-45.222c0-0.304,0.076-0.456,0.304-0.684l2.661-2.66
				c0.228-0.228,0.38-0.304,0.684-0.304H185.608z M182.644,249.178h-6.536v39.37h6.536V249.178z"/>
		</g>
	</g>
	<g>
		<g>
			<path fill="#FFFFFF" d="M163.937,241.566c0.38,0,0.532,0.152,0.608,0.532l0.684,5.548c0.076,0.304-0.152,0.532-0.456,0.532
				h-6.004v43.474l0.608,1.824c0.152,0.38,0,0.607-0.38,0.607h-6.992c-0.38,0-0.532-0.228-0.38-0.607l0.608-1.824v-43.474h-6.081
				c-0.304,0-0.532-0.228-0.456-0.532l0.684-5.548c0.076-0.38,0.228-0.532,0.608-0.532H163.937z"/>
		</g>
		<g>
			<path fill="#FFFFFF" d="M184.608,241.566c0.305,0,0.455,0.076,0.684,0.304l2.661,2.66c0.228,0.228,0.304,0.38,0.304,0.684v45.222
				c0,0.304-0.076,0.457-0.304,0.684l-2.661,2.66c-0.229,0.228-0.379,0.304-0.684,0.304h-12.389c-0.304,0-0.456-0.076-0.684-0.304
				l-2.66-2.66c-0.228-0.228-0.304-0.38-0.304-0.684v-45.222c0-0.304,0.076-0.456,0.304-0.684l2.66-2.66
				c0.228-0.228,0.38-0.304,0.684-0.304H184.608z M181.644,248.178h-6.536v39.37h6.536V248.178z"/>
		</g>
	</g>
</g>
<g>
	<g>
		<g>
			<polygon fill="#FFFFFF" points="150.387,263.543 23.969,263.543 22.969,269.96 150.387,269.96 			"/>
		</g>
		<g>
			<polygon fill="#FFFFFF" points="191.55,263.543 191.55,269.959 318.968,269.959 317.968,263.543 			"/>
		</g>
	</g>
	<g>
		<g>
			<polygon fill="#FFFFFF" points="149.387,262.543 22.969,262.543 21.969,268.96 149.387,268.96 			"/>
		</g>
		<g>
			<polygon fill="#FFFFFF" points="190.55,262.543 190.55,268.959 317.968,268.959 316.968,262.543 			"/>
		</g>
	</g>
</g>
<g>
	<g>
		<g>
			<path fill="#FFFFFF" d="M64.899,219.336c0.616,0,1.077,0.461,0.923,1.077l-1.384,11.076c-0.154,0.77-0.461,1.077-1.231,1.077
				H25.671c-0.77,0-1.077-0.461-0.77-1.231l1.231-3.692v-96.302l-1.231-3.846c-0.308-0.769,0-1.231,0.77-1.231l14.153-9
				c0.769,0,1.077,0.462,0.923,1.231l-1.23,3.846v96.995H64.899z"/>
		</g>
		<g>
			<path fill="#FFFFFF" d="M105.358,79.265c0.615,0,0.923,0.154,1.384,0.616l5.385,5.384c0.461,0.461,0.615,0.769,0.615,1.384
				v138.533c0,0.615-0.154,0.922-0.615,1.384l-5.385,5.385c-0.461,0.461-0.769,0.615-1.384,0.615H80.283
				c-0.615,0-0.923-0.154-1.385-0.615l-5.384-5.385c-0.461-0.461-0.615-0.769-0.615-1.384V98.649c0-0.616,0.154-0.923,0.615-1.384
				l5.384-3.384c0.462-0.462,0.77-0.616,1.385-0.616L105.358,79.265z M99.359,106.648h-13.23v112.688h13.23V106.648z"/>
		</g>
		<g>
			<path fill="#FFFFFF" d="M136.895,227.643l1.23,3.692c0.308,0.77,0,1.231-0.769,1.231h-14.153c-0.77,0-1.077-0.461-0.77-1.231
				l1.231-3.692V71.341l-1.231-3.846c-0.308-0.769,0-1.231,0.77-1.231l12.768-7c0.616,0,0.923,0.308,1.077,0.923l13.23,124.073
				V56.341l-1.231-3.846c-0.308-0.769,0-1.231,0.77-1.231l14.153-8c0.769,0,1.077,0.462,0.769,1.231l-1.23,3.846v179.302l1.23,3.692
				c0.309,0.77,0,1.231-0.769,1.231h-12.769c-0.616,0-0.923-0.308-1.077-0.923l-13.23-57.073V227.643z"/>
		</g>
		<g>
			<path fill="#FFFFFF" d="M175.968,46.188l-1.231-3.692c-0.152-0.769,0.154-1.231,0.924-1.231l32.921,19
				c0.615,0,0.923,0.154,1.384,0.616l5.385,4.384c0.462,0.461,0.615,0.769,0.615,1.384v158.533c0,0.615-0.153,0.922-0.615,1.384
				l-5.385,5.385c-0.461,0.461-0.769,0.615-1.384,0.615h-32.921c-0.77,0-1.076-0.461-0.924-1.231l1.231-3.846V46.188z
				 M189.351,73.495v145.688h13.229V73.495H189.351z"/>
		</g>
		<g>
			<path fill="#FFFFFF" d="M257.655,89.265c0.615,0,0.923,0.154,1.385,0.616l5.384,3.384c0.461,0.461,0.615,0.769,0.615,1.384
				v130.533c0,0.615-0.154,0.922-0.615,1.384l-5.384,5.385c-0.462,0.461-0.77,0.615-1.385,0.615H232.58
				c-0.616,0-0.924-0.154-1.385-0.615l-5.384-5.385c-0.462-0.461-0.616-0.769-0.616-1.384V82.649c0-0.616,0.154-0.923,0.616-1.384
				l5.384-5.384c0.461-0.462,0.769-0.616,1.385-0.616L257.655,89.265z M251.655,102.648h-13.23v116.688h13.23V102.648z"/>
		</g>
		<g>
			<path fill="#FFFFFF" d="M289.19,227.643l1.231,3.692c0.308,0.77,0,1.231-0.77,1.231H275.5c-0.77,0-1.077-0.461-0.77-1.231
				l1.23-3.692V105.341l-1.23-3.846c-0.308-0.769,0-1.231,0.77-1.231l12.768,8c0.615,0,0.923,0.308,1.077,0.923l13.23,75.073v-62.92
				l-1.23-3.846c-0.308-0.769,0-1.231,0.769-1.231l14.153,9c0.769,0,1.077,0.462,0.769,1.231l-1.23,3.846v97.302l1.23,3.692
				c0.309,0.77,0,1.231-0.769,1.231h-12.769c-0.615,0-0.923-0.308-1.077-0.923l-13.23-57.073V227.643z"/>
		</g>
	</g>
	<g>
		<g>
			<path fill="#FFFFFF" d="M63.899,218.336c0.616,0,1.077,0.461,0.923,1.077l-1.384,11.076c-0.154,0.77-0.461,1.077-1.231,1.077
				H24.671c-0.77,0-1.077-0.461-0.77-1.231l1.231-3.692v-96.302l-1.231-3.846c-0.308-0.769,0-1.231,0.77-1.231l14.153-9
				c0.769,0,1.077,0.462,0.923,1.231l-1.23,3.846v96.995H63.899z"/>
		</g>
		<g>
			<path fill="#FFFFFF" d="M104.358,78.265c0.615,0,0.923,0.154,1.384,0.616l5.385,5.384c0.461,0.461,0.615,0.769,0.615,1.384
				v138.533c0,0.615-0.154,0.922-0.615,1.384l-5.385,5.385c-0.461,0.461-0.769,0.615-1.384,0.615H79.283
				c-0.615,0-0.923-0.154-1.385-0.615l-5.384-5.385c-0.461-0.461-0.615-0.769-0.615-1.384V97.649c0-0.616,0.154-0.923,0.615-1.384
				l5.384-3.384c0.462-0.462,0.77-0.616,1.385-0.616L104.358,78.265z M98.359,105.648h-13.23v112.688h13.23V105.648z"/>
		</g>
		<g>
			<path fill="#FFFFFF" d="M135.895,226.643l1.23,3.692c0.308,0.77,0,1.231-0.769,1.231h-14.153c-0.77,0-1.077-0.461-0.77-1.231
				l1.231-3.692V70.341l-1.231-3.846c-0.308-0.769,0-1.231,0.77-1.231l12.768-7c0.616,0,0.923,0.308,1.077,0.923l13.23,124.073
				V55.341l-1.231-3.846c-0.308-0.769,0-1.231,0.77-1.231l14.153-8c0.769,0,1.077,0.462,0.769,1.231l-1.23,3.846v179.302l1.23,3.692
				c0.309,0.77,0,1.231-0.769,1.231h-12.769c-0.616,0-0.923-0.308-1.077-0.923l-13.23-57.073V226.643z"/>
		</g>
		<g>
			<path fill="#FFFFFF" d="M174.968,45.188l-1.231-3.692c-0.152-0.769,0.154-1.231,0.924-1.231l32.921,19
				c0.615,0,0.923,0.154,1.384,0.616l5.385,4.384c0.462,0.461,0.615,0.769,0.615,1.384v158.533c0,0.615-0.153,0.922-0.615,1.384
				l-5.385,5.385c-0.461,0.461-0.769,0.615-1.384,0.615h-32.921c-0.77,0-1.076-0.461-0.924-1.231l1.231-3.846V45.188z
				 M188.352,72.495v145.688h13.229V72.495H188.352z"/>
		</g>
		<g>
			<path fill="#FFFFFF" d="M256.655,88.265c0.615,0,0.923,0.154,1.385,0.616l5.384,3.384c0.461,0.461,0.615,0.769,0.615,1.384
				v130.533c0,0.615-0.154,0.922-0.615,1.384l-5.384,5.385c-0.462,0.461-0.77,0.615-1.385,0.615H231.58
				c-0.616,0-0.924-0.154-1.385-0.615l-5.384-5.385c-0.462-0.461-0.616-0.769-0.616-1.384V81.649c0-0.616,0.154-0.923,0.616-1.384
				l5.384-5.384c0.461-0.462,0.769-0.616,1.385-0.616L256.655,88.265z M250.655,101.648h-13.23v116.688h13.23V101.648z"/>
		</g>
		<g>
			<path fill="#FFFFFF" d="M288.19,226.643l1.231,3.692c0.308,0.77,0,1.231-0.77,1.231H274.5c-0.77,0-1.077-0.461-0.77-1.231
				l1.23-3.692V104.341l-1.23-3.846c-0.308-0.769,0-1.231,0.77-1.231l12.768,8c0.615,0,0.923,0.308,1.077,0.923l13.23,75.073v-62.92
				l-1.23-3.846c-0.308-0.769,0-1.231,0.769-1.231l14.153,9c0.769,0,1.077,0.462,0.769,1.231l-1.23,3.846v97.302l1.23,3.692
				c0.309,0.77,0,1.231-0.769,1.231h-12.769c-0.615,0-0.923-0.308-1.077-0.923l-13.23-57.073V226.643z"/>
		</g>
	</g>
</g>
<g>
	<g>
		<g>
			<path fill="#FFFFFF" d="M43.45,458.793l1.721,5.164c0.43,1.074,0,1.719-1.076,1.719l-19.782-12c-1.076,0-1.506-0.645-1.076-1.719
				l1.721-5.164V312.18l-1.721-5.375c-0.43-1.074,0-1.721,1.076-1.721H70.33c0.86,0,1.29,0.215,1.935,0.861l7.527,7.525
				c0.645,0.645,0.859,1.074,0.859,1.936v63.006c0,0.861-0.215,1.291-0.859,1.936l-7.527,7.525
				c-0.645,0.646-1.074,0.861-1.935,0.861H43.45V458.793z M43.45,370.24h18.493v-46.447H43.45V370.24z"/>
		</g>
		<g>
			<path fill="#FFFFFF" d="M140.433,445.785l2.58,8.172c0.43,1.074,0,1.719-1.076,1.719l-19.567,7c-1.291,0-1.721-0.645-1.291-1.719
				l1.506-4.303l-3.011-32.18h-11.396l-4.012,43.18l1.291,4.303c0.43,1.074,0,1.719-1.076,1.719l-19.782,17
				c-1.076,0-1.506-0.645-1.076-1.719l2.581-8.172l17.773-170.541l-1.076-3.439c-0.43-1.074,0-1.721,1.076-1.721h19.782
				c1.076,0,1.506,0.646,1.076,1.721l-1.076,3.439L140.433,445.785z M109.897,405.766h7.741l-3.87-47.566L109.897,405.766z"/>
		</g>
		<g>
			<path fill="#FFFFFF" d="M174.838,451.957c0.431,1.074,0,1.719-1.075,1.719l-19.783,1c-1.075,0-1.505-0.645-1.075-1.719
				l1.721-5.164V312.18l-1.721-5.375c-0.43-1.074,0-1.721,1.075-1.721h46.019c0.859,0,1.29,0.215,1.936,0.861l7.526,7.525
				c0.646,0.645,0.859,1.074,0.859,1.936v63.006c0,0.861-0.214,1.291-0.859,1.936l-8.387,8.387l8.956,63.48l2.365,7.742
				c0.431,1.074,0,1.719-1.075,1.719l-20.568-6c-1.29,0-1.721-0.645-1.29-1.719l1.505-4.303l-8.602-60.92h-9.246v58.059
				L174.838,451.957z M173.119,370.24h18.708v-46.447h-18.708V370.24z"/>
		</g>
		<g>
			<path fill="#FFFFFF" d="M244.727,474.793l1.721,5.164c0.43,1.074,0,1.719-1.075,1.719l-19.783-13
				c-1.075,0-1.506-0.645-1.075-1.719l1.72-5.164V312.18l-1.72-5.375c-0.431-1.074,0-1.721,1.075-1.721h19.783
				c1.075,0,1.505,0.646,1.075,1.721l-1.721,5.375V474.793z"/>
		</g>
		<g>
			<path fill="#FFFFFF" d="M316.98,335.404l1.722,5.162c0.43,1.074,0,1.719-1.076,1.719h-19.783c-1.075,0-1.505-0.645-1.291-1.719
				l1.722-5.162v-11.611h-18.494v46.447h26.88c0.859,0,1.29,0.217,1.936,0.861l7.526,7.525c0.646,0.646,0.859,1.076,0.859,1.936
				v67.791c0,0.861-0.214,1.291-0.859,1.936l-7.526,7.527c-0.646,0.645-1.076,0.859-1.936,0.859l-35.051,21
				c-0.86,0-1.29-0.215-1.936-0.859l-7.742-7.527c-0.645-0.645-0.86-1.074-0.86-1.936V428.57l-1.72-5.16
				c-0.215-1.076,0.215-1.721,1.29-1.721h19.783c1.076,0,1.506,0.645,1.076,1.721l-1.721,5.16v11.611h18.494v-51.447h-26.665
				c-0.86,0-1.29-0.215-1.936-0.861l-7.742-7.525c-0.645-0.645-0.86-1.074-0.86-1.936v-63.006c0-0.861,0.216-1.291,0.86-1.936
				l7.742-7.525c0.646-0.646,1.075-0.861,1.936-0.861h35.051c0.859,0,1.29,0.215,1.936,0.861l7.526,7.525
				c0.646,0.645,0.859,1.074,0.859,1.936V335.404z"/>
		</g>
	</g>
	<g>
		<g>
			<path fill="#FFFFFF" d="M42.45,457.793l1.721,5.164c0.43,1.074,0,1.719-1.076,1.719l-19.782-12c-1.076,0-1.506-0.645-1.076-1.719
				l1.721-5.164V311.18l-1.721-5.375c-0.43-1.074,0-1.721,1.076-1.721H69.33c0.86,0,1.29,0.215,1.935,0.861l7.527,7.525
				c0.645,0.645,0.859,1.074,0.859,1.936v63.006c0,0.861-0.215,1.291-0.859,1.936l-7.527,7.525
				c-0.645,0.646-1.074,0.861-1.935,0.861H42.45V457.793z M42.45,369.24h18.493v-46.447H42.45V369.24z"/>
		</g>
		<g>
			<path fill="#FFFFFF" d="M139.433,444.785l2.58,8.172c0.43,1.074,0,1.719-1.076,1.719l-19.567,7c-1.291,0-1.721-0.645-1.291-1.719
				l1.506-4.303l-3.011-32.18h-11.396l-4.012,43.18l1.291,4.303c0.43,1.074,0,1.719-1.076,1.719l-19.782,17
				c-1.076,0-1.506-0.645-1.076-1.719l2.581-8.172l17.773-170.541l-1.076-3.439c-0.43-1.074,0-1.721,1.076-1.721h19.782
				c1.076,0,1.506,0.646,1.076,1.721l-1.076,3.439L139.433,444.785z M108.897,404.766h7.741l-3.87-47.566L108.897,404.766z"/>
		</g>
		<g>
			<path fill="#FFFFFF" d="M173.838,450.957c0.431,1.074,0,1.719-1.075,1.719l-19.783,1c-1.075,0-1.505-0.645-1.075-1.719
				l1.721-5.164V311.18l-1.721-5.375c-0.43-1.074,0-1.721,1.075-1.721h46.019c0.859,0,1.29,0.215,1.936,0.861l7.526,7.525
				c0.646,0.645,0.859,1.074,0.859,1.936v63.006c0,0.861-0.214,1.291-0.859,1.936l-8.387,8.387l8.956,63.48l2.365,7.742
				c0.431,1.074,0,1.719-1.075,1.719l-20.568-6c-1.29,0-1.721-0.645-1.29-1.719l1.505-4.303l-8.602-60.92h-9.246v58.059
				L173.838,450.957z M172.119,369.24h18.708v-46.447h-18.708V369.24z"/>
		</g>
		<g>
			<path fill="#FFFFFF" d="M243.727,473.793l1.721,5.164c0.43,1.074,0,1.719-1.075,1.719l-19.783-13
				c-1.075,0-1.506-0.645-1.075-1.719l1.72-5.164V311.18l-1.72-5.375c-0.431-1.074,0-1.721,1.075-1.721h19.783
				c1.075,0,1.505,0.646,1.075,1.721l-1.721,5.375V473.793z"/>
		</g>
		<g>
			<path fill="#FFFFFF" d="M315.98,334.404l1.722,5.162c0.43,1.074,0,1.719-1.076,1.719h-19.783c-1.075,0-1.505-0.645-1.291-1.719
				l1.722-5.162v-11.611h-18.494v46.447h26.88c0.859,0,1.29,0.217,1.936,0.861l7.526,7.525c0.646,0.646,0.859,1.076,0.859,1.936
				v67.791c0,0.861-0.214,1.291-0.859,1.936l-7.526,7.527c-0.646,0.645-1.076,0.859-1.936,0.859l-35.051,21
				c-0.86,0-1.29-0.215-1.936-0.859l-7.742-7.527c-0.645-0.645-0.86-1.074-0.86-1.936V427.57l-1.72-5.16
				c-0.215-1.076,0.215-1.721,1.29-1.721h19.783c1.076,0,1.506,0.645,1.076,1.721l-1.721,5.16v11.611h18.494v-51.447h-26.665
				c-0.86,0-1.29-0.215-1.936-0.861l-7.742-7.525c-0.645-0.645-0.86-1.074-0.86-1.936v-63.006c0-0.861,0.216-1.291,0.86-1.936
				l7.742-7.525c0.646-0.646,1.075-0.861,1.936-0.861h35.051c0.859,0,1.29,0.215,1.936,0.861l7.526,7.525
				c0.646,0.645,0.859,1.074,0.859,1.936V334.404z"/>
		</g>
	</g>
</g>
<g>
	<g>
		<g>
			<path fill="#FFFFFF" d="M208.378,487.718l-1.713-0.714l-1.021,2.452l1.713,0.713c0.887,0.369,1.518-0.147,1.751-0.709
				C209.343,488.898,209.265,488.086,208.378,487.718z"/>
		</g>
		<g>
			<path fill="#FFFFFF" d="M183.991,480.891c-1.791-0.256-3.159,0.842-3.426,2.711c-0.264,1.854,0.741,3.306,2.531,3.561
				c1.805,0.258,3.176-0.856,3.44-2.709C186.803,482.584,185.795,481.147,183.991,480.891z"/>
		</g>
	</g>
	<g>
		<path fill="#FFFFFF" d="M155.907,482.067l-0.016,0.003c-0.016,0.002-0.502,0.965-0.866,1.554l-0.729,1.178
			c-0.324,0.534-0.494,0.803-0.492,0.818l0.002,0.017c0.079-0.013,0.599-0.106,1.327-0.216l1.202-0.182l-0.081-0.538
			C156.083,483.562,155.91,482.084,155.907,482.067z"/>
	</g>
</g>
<g>
	<path fill="#FFFFFF" d="M169.777,466.653c-31.878,0-63.866,16.064-84.275,40.589l26.597,16.469
		c14.311-17.195,35.333-25.058,57.678-25.058c22.571,0,43.731,8.028,58.055,25.513l26.754-17.279
		C234.161,481.953,201.978,466.653,169.777,466.653z M93.862,508.852c-0.111,0-0.223-0.024-0.329-0.076
		c-0.372-0.182-0.526-0.631-0.344-1.003c0.125-0.256,3.142-6.292,10.668-10.228c0.367-0.19,0.82-0.05,1.012,0.317
		s0.05,0.82-0.317,1.013c-7.095,3.709-9.987,9.498-10.016,9.556C94.406,508.697,94.14,508.852,93.862,508.852z M98.347,511.812
		c-0.138,0-0.278-0.038-0.403-0.118c-0.349-0.223-0.452-0.687-0.229-1.035c0.206-0.322,5.119-7.93,12.605-11.845
		c0.366-0.19,0.821-0.049,1.012,0.317c0.192,0.367,0.05,0.82-0.317,1.013c-7.135,3.731-11.988,11.246-12.036,11.321
		C98.836,511.69,98.594,511.812,98.347,511.812z M104.154,514.601c-0.103,0-0.208-0.021-0.308-0.066
		c-0.377-0.171-0.545-0.615-0.375-0.992c0.081-0.179,2.032-4.415,6.87-7.878c0.337-0.237,0.806-0.162,1.046,0.174
		c0.241,0.337,0.164,0.806-0.173,1.047c-4.513,3.229-6.358,7.234-6.376,7.274C104.712,514.437,104.439,514.601,104.154,514.601z
		 M118.842,507.67c-7.091,3.707-9.809,9.272-9.835,9.328c-0.128,0.27-0.397,0.427-0.677,0.427c-0.108,0-0.218-0.023-0.323-0.073
		c-0.374-0.179-0.532-0.626-0.354-1c0.117-0.246,2.964-6.074,10.494-10.012c0.367-0.191,0.82-0.05,1.012,0.317
		S119.208,507.478,118.842,507.67z M124.028,500.962l-5.49-9.763l2.343-1.318l5.49,9.763L124.028,500.962z M135.164,495.424
		l-3.358-1.921c-1.508-0.87-3.746-2.203-3.761-2.196l-0.015,0.006c-0.015,0.007,0.716,1.572,1.711,3.809l1.008,2.267l-2.456,1.092
		l-4.55-10.232l2.31-1.027l3.478,1.955c1.048,0.585,3.593,2.097,3.608,2.09l0.015-0.007c0.015-0.006-0.821-1.806-1.646-3.662
		l-1.04-2.339l2.456-1.092l4.55,10.232L135.164,495.424z M142.915,492.592l-0.554-2.122c1.143-1.704,2.275-3.39,3.418-5.095
		c0.432-0.625,0.604-1.232,0.483-1.697c-0.17-0.65-0.85-1.102-1.702-0.879c-0.976,0.255-1.214,1.177-1.271,1.787l-2.566-0.008
		c0.062-1.853,1.163-3.53,3.316-4.092c2.354-0.615,4.334,0.506,4.856,2.504c0.53,2.029-0.618,3.338-1.707,4.614
		c-0.717,0.866-1.504,1.717-1.5,1.732l0.02,0.011c0.016-0.004,1.048-0.356,2.69-0.785l1.843-0.48l0.635,2.432L142.915,492.592z
		 M159.483,489.167l-2.5,0.377l-0.3-1.994l-5.538,0.833l-0.3-1.994l4.788-7.969l2.184-0.329l1.019,6.772l1.187-0.179l0.348,2.311
		l-1.187,0.179L159.483,489.167z M175.666,488.712l-2.688-0.031l0.049-4.354l-4.193-0.048l-0.05,4.354l-2.689-0.03l0.128-11.205
		l2.689,0.031l-0.05,4.338l4.194,0.048l0.049-4.338l2.689,0.03L175.666,488.712z M189.308,484.849
		c-0.477,3.342-3.403,5.396-6.587,4.942c-3.184-0.453-5.404-3.242-4.928-6.585c0.477-3.342,3.388-5.399,6.571-4.945
		S189.785,481.506,189.308,484.849z M194.43,492.264c-2.864-0.806-4.26-3.109-3.35-6.343l1.687-5.989l2.586,0.729l-1.668,5.928
		c-0.521,1.848,0.009,2.86,1.425,3.259c1.417,0.398,2.396-0.189,2.917-2.037l1.668-5.928l2.587,0.729l-1.687,5.989
		C199.686,491.832,197.278,493.065,194.43,492.264z M209.293,497.509l-2.776-1.156l-0.519-4.167l-1.271-0.528l-1.401,3.367
		l-2.481-1.033l4.305-10.339l3.854,1.604c2.6,1.082,3.575,3.152,2.689,5.279c-0.578,1.389-1.673,2.146-3.104,2.209L209.293,497.509z
		 M219.025,499.115c-0.984,1.795-3.227,2.225-5.513,0.972c-2.047-1.123-2.883-3.059-2.521-5.25l2.589,0.636
		c-0.155,0.882,0.139,2.009,1.176,2.578c0.842,0.462,1.449,0.284,1.711-0.192c0.431-0.785-0.611-1.612-1.722-2.914
		c-0.932-1.095-1.938-2.486-0.992-4.211c0.838-1.528,3.143-2.07,5.273-0.901c1.879,1.03,2.735,2.995,2.352,4.792l-2.609-0.629
		c0.238-1.001-0.296-1.822-0.997-2.207s-1.301-0.257-1.516,0.136c-0.354,0.645,0.497,1.422,1.45,2.51
		C218.874,495.767,219.948,497.433,219.025,499.115z M232.351,517.351c-0.104,0.05-0.215,0.074-0.323,0.074
		c-0.28,0-0.548-0.157-0.678-0.426c-0.026-0.056-2.771-5.636-9.836-9.329c-0.367-0.192-0.509-0.646-0.317-1.013
		c0.193-0.367,0.645-0.508,1.013-0.317c7.529,3.938,10.377,9.766,10.494,10.012C232.882,516.726,232.724,517.172,232.351,517.351z
		 M236.511,514.533c-0.101,0.046-0.206,0.067-0.309,0.067c-0.286,0-0.559-0.164-0.685-0.44c-0.018-0.04-1.882-4.06-6.376-7.275
		c-0.337-0.241-0.414-0.71-0.174-1.047c0.24-0.335,0.707-0.414,1.047-0.174c4.839,3.463,6.789,7.699,6.87,7.878
		C237.055,513.919,236.888,514.362,236.511,514.533z M242.413,511.694c-0.125,0.08-0.265,0.118-0.402,0.118
		c-0.248,0-0.49-0.122-0.633-0.347c-0.049-0.075-4.911-7.596-12.036-11.321c-0.367-0.192-0.509-0.646-0.317-1.013
		c0.192-0.367,0.644-0.509,1.013-0.317c7.486,3.915,12.399,11.522,12.604,11.845C242.865,511.008,242.762,511.472,242.413,511.694z
		 M246.824,508.774c-0.106,0.052-0.219,0.077-0.329,0.077c-0.277,0-0.544-0.154-0.674-0.42c-0.029-0.058-2.946-5.86-10.017-9.557
		c-0.367-0.192-0.509-0.646-0.317-1.013c0.193-0.367,0.645-0.509,1.013-0.317c7.526,3.936,10.543,9.972,10.668,10.228
		C247.349,508.144,247.196,508.592,246.824,508.774z"/>
</g>
<g>
	<path fill="#FFFFFF" d="M170.468,555.895c-0.414,0-0.75-0.336-0.75-0.75V498.84c0-0.414,0.336-0.75,0.75-0.75s0.75,0.336,0.75,0.75
		v56.305C171.218,555.559,170.882,555.895,170.468,555.895z"/>
</g>
<g>
	<path fill="#FFFFFF" d="M170.561,555.895c-0.192,0-0.384-0.073-0.53-0.22c-0.293-0.293-0.293-0.768,0-1.061l45.143-45.141
		c0.293-0.293,0.768-0.293,1.061,0s0.293,0.768,0,1.061l-45.143,45.141C170.945,555.821,170.753,555.895,170.561,555.895z"/>
</g>
<g>
	<path fill="#FFFFFF" d="M170.468,555.895c-0.095,0-0.193-0.019-0.287-0.057c-0.383-0.159-0.564-0.598-0.406-0.98l24.431-58.98
		c0.159-0.383,0.6-0.562,0.98-0.406c0.383,0.159,0.564,0.598,0.406,0.98l-24.432,58.98
		C171.042,555.721,170.762,555.895,170.468,555.895z"/>
</g>
<g>
	<path fill="#FFFFFF" d="M170.375,557.232c-0.192,0-0.384-0.073-0.53-0.22l-45.143-45.141c-0.293-0.293-0.293-0.768,0-1.061
		s0.768-0.293,1.061,0l45.143,45.141c0.293,0.293,0.293,0.768,0,1.061C170.759,557.159,170.567,557.232,170.375,557.232z"/>
</g>
<g>
	<path fill="#FFFFFF" d="M170.469,557.232c-0.294,0-0.574-0.174-0.693-0.463l-24.432-58.98c-0.159-0.383,0.023-0.821,0.406-0.98
		c0.385-0.155,0.822,0.024,0.98,0.406l24.432,58.98c0.159,0.383-0.023,0.821-0.406,0.98
		C170.662,557.214,170.564,557.232,170.469,557.232z"/>
</g>
<g>
	<g>
		<g>
			<g>
				<path fill="#FFFFFF" d="M171.414,567.049c1.935,0,1.935-3,0-3S169.479,567.049,171.414,567.049L171.414,567.049z"/>
			</g>
		</g>
		<g>
			<g>
				<path fill="#FFFFFF" d="M188.586,556.796c1.935,0,1.935-3,0-3S186.652,556.796,188.586,556.796L188.586,556.796z"/>
			</g>
		</g>
		<g>
			<g>
				<path fill="#FFFFFF" d="M205.756,546.542c1.935,0,1.935-3,0-3S203.822,546.542,205.756,546.542L205.756,546.542z"/>
			</g>
		</g>
		<g>
			<g>
				<path fill="#FFFFFF" d="M222.928,536.289c1.935,0,1.935-3,0-3S220.994,536.289,222.928,536.289L222.928,536.289z"/>
			</g>
		</g>
		<g>
			<g>
				<path fill="#FFFFFF" d="M240.1,526.035c1.935,0,1.935-3,0-3S238.166,526.035,240.1,526.035L240.1,526.035z"/>
			</g>
		</g>
		<g>
			<g>
				<path fill="#FFFFFF" d="M257.272,515.781c1.935,0,1.935-3,0-3S255.337,515.781,257.272,515.781L257.272,515.781z"/>
			</g>
		</g>
		<g>
			<g>
				<path fill="#FFFFFF" d="M274.444,505.526c1.935,0,1.935-3,0-3S272.509,505.526,274.444,505.526L274.444,505.526z"/>
			</g>
		</g>
		<g>
			<g>
				<path fill="#FFFFFF" d="M291.616,495.273c1.935,0,1.935-3,0-3S289.681,495.273,291.616,495.273L291.616,495.273z"/>
			</g>
		</g>
		<g>
			<g>
				<path fill="#FFFFFF" d="M308.787,485.021c1.935,0,1.935-3,0-3S306.852,485.021,308.787,485.021L308.787,485.021z"/>
			</g>
		</g>
		<g>
			<g>
				<path fill="#FFFFFF" d="M325.958,474.767c1.935,0,1.935-3,0-3S324.023,474.767,325.958,474.767L325.958,474.767z"/>
			</g>
		</g>
	</g>
	<g>
		<g>
			<g>
				<path fill="#FFFFFF" d="M153.019,557.402c1.935,0,1.935-3,0-3S151.084,557.402,153.019,557.402L153.019,557.402z"/>
			</g>
		</g>
		<g>
			<g>
				<path fill="#FFFFFF" d="M135.783,547.261c1.935,0,1.935-3,0-3S133.848,547.261,135.783,547.261L135.783,547.261z"/>
			</g>
		</g>
		<g>
			<g>
				<path fill="#FFFFFF" d="M118.544,537.121c1.935,0,1.935-3,0-3S116.609,537.121,118.544,537.121L118.544,537.121z"/>
			</g>
		</g>
		<g>
			<g>
				<path fill="#FFFFFF" d="M101.305,526.979c1.935,0,1.935-3,0-3S99.37,526.979,101.305,526.979L101.305,526.979z"/>
			</g>
		</g>
		<g>
			<g>
				<path fill="#FFFFFF" d="M84.066,516.837c1.935,0,1.935-3,0-3S82.132,516.837,84.066,516.837L84.066,516.837z"/>
			</g>
		</g>
		<g>
			<g>
				<path fill="#FFFFFF" d="M66.828,506.695c1.935,0,1.935-3,0-3S64.894,506.695,66.828,506.695L66.828,506.695z"/>
			</g>
		</g>
		<g>
			<g>
				<path fill="#FFFFFF" d="M49.589,496.555c1.935,0,1.935-3,0-3S47.655,496.555,49.589,496.555L49.589,496.555z"/>
			</g>
		</g>
		<g>
			<g>
				<path fill="#FFFFFF" d="M32.352,486.414c1.935,0,1.935-3,0-3S30.417,486.414,32.352,486.414L32.352,486.414z"/>
			</g>
		</g>
		<g>
			<g>
				<path fill="#FFFFFF" d="M15.115,476.273c1.935,0,1.935-3,0-3S13.18,476.273,15.115,476.273L15.115,476.273z"/>
			</g>
		</g>
	</g>
</g>
<g>
	<g>
		<g>
			<g>
				<path fill="#FFFFFF" d="M171.414,14.768c1.935,0,1.935-3,0-3S169.479,14.768,171.414,14.768L171.414,14.768z"/>
			</g>
		</g>
		<g>
			<g>
				<path fill="#FFFFFF" d="M188.586,25.021c1.935,0,1.935-3,0-3S186.652,25.021,188.586,25.021L188.586,25.021z"/>
			</g>
		</g>
		<g>
			<g>
				<path fill="#FFFFFF" d="M205.756,35.274c1.935,0,1.935-3,0-3S203.822,35.274,205.756,35.274L205.756,35.274z"/>
			</g>
		</g>
		<g>
			<g>
				<path fill="#FFFFFF" d="M222.928,45.527c1.935,0,1.935-3,0-3S220.994,45.527,222.928,45.527L222.928,45.527z"/>
			</g>
		</g>
		<g>
			<g>
				<path fill="#FFFFFF" d="M240.1,55.781c1.935,0,1.935-3,0-3S238.166,55.781,240.1,55.781L240.1,55.781z"/>
			</g>
		</g>
		<g>
			<g>
				<path fill="#FFFFFF" d="M257.272,66.035c1.935,0,1.935-3,0-3S255.337,66.035,257.272,66.035L257.272,66.035z"/>
			</g>
		</g>
		<g>
			<g>
				<path fill="#FFFFFF" d="M274.444,76.29c1.935,0,1.935-3,0-3S272.509,76.29,274.444,76.29L274.444,76.29z"/>
			</g>
		</g>
		<g>
			<g>
				<path fill="#FFFFFF" d="M291.616,86.543c1.935,0,1.935-3,0-3S289.681,86.543,291.616,86.543L291.616,86.543z"/>
			</g>
		</g>
		<g>
			<g>
				<path fill="#FFFFFF" d="M308.787,96.796c1.935,0,1.935-3,0-3S306.852,96.796,308.787,96.796L308.787,96.796z"/>
			</g>
		</g>
		<g>
			<g>
				<path fill="#FFFFFF" d="M325.958,107.05c1.935,0,1.935-3,0-3S324.023,107.05,325.958,107.05L325.958,107.05z"/>
			</g>
		</g>
	</g>
	<g>
		<g>
			<g>
				<path fill="#FFFFFF" d="M153.019,24.414c1.935,0,1.935-3,0-3S151.084,24.414,153.019,24.414L153.019,24.414z"/>
			</g>
		</g>
		<g>
			<g>
				<path fill="#FFFFFF" d="M135.783,34.556c1.935,0,1.935-3,0-3S133.848,34.556,135.783,34.556L135.783,34.556z"/>
			</g>
		</g>
		<g>
			<g>
				<path fill="#FFFFFF" d="M118.544,44.695c1.935,0,1.935-3,0-3S116.609,44.695,118.544,44.695L118.544,44.695z"/>
			</g>
		</g>
		<g>
			<g>
				<path fill="#FFFFFF" d="M101.305,54.837c1.935,0,1.935-3,0-3S99.37,54.837,101.305,54.837L101.305,54.837z"/>
			</g>
		</g>
		<g>
			<g>
				<path fill="#FFFFFF" d="M84.066,64.979c1.935,0,1.935-3,0-3S82.132,64.979,84.066,64.979L84.066,64.979z"/>
			</g>
		</g>
		<g>
			<g>
				<path fill="#FFFFFF" d="M66.828,75.121c1.935,0,1.935-3,0-3S64.894,75.121,66.828,75.121L66.828,75.121z"/>
			</g>
		</g>
		<g>
			<g>
				<path fill="#FFFFFF" d="M49.589,85.262c1.935,0,1.935-3,0-3S47.655,85.262,49.589,85.262L49.589,85.262z"/>
			</g>
		</g>
		<g>
			<g>
				<path fill="#FFFFFF" d="M32.352,95.402c1.935,0,1.935-3,0-3S30.417,95.402,32.352,95.402L32.352,95.402z"/>
			</g>
		</g>
		<g>
			<g>
				<path fill="#FFFFFF" d="M15.115,105.543c1.935,0,1.935-3,0-3S13.18,105.543,15.115,105.543L15.115,105.543z"/>
			</g>
		</g>
	</g>
</g>
</svg>
